<?xml version="1.0" standalone="no"?>
<!DOCTYPE svg PUBLIC "-//W3C//DTD SVG 20010904//EN"
 "http://www.w3.org/TR/2001/REC-SVG-20010904/DTD/svg10.dtd">
<svg version="1.0" xmlns="http://www.w3.org/2000/svg"
 width="7011.000000pt" height="6423.000000pt" viewBox="0 0 7011.000000 6423.000000"
 preserveAspectRatio="xMidYMid meet">

<g transform="translate(0.000000,6423.000000) scale(0.100000,-0.100000)"
fill="#000000" stroke="none">
<path d="M23595 60583 c-2271 -2005 -4129 -3651 -4129 -3658 1 -7 1850 -2108
4110 -4669 2260 -2561 4109 -4663 4109 -4670 0 -8 -4587 -5213 -10194 -11567
l-10193 -11554 63 -57 c35 -31 6274 -5535 13864 -12232 12219 -10780 13802
-12173 13815 -12161 14 13 18 13 31 0 12 -13 1739 1507 13854 12196 7612 6715
13850 12220 13863 12233 l23 22 -10193 11553 c-5606 6355 -10193 11559 -10193
11567 0 7 1849 2109 4109 4670 2260 2561 4109 4662 4110 4670 1 10 -2728 2422
-8066 7130 l-196 174 -3663 -4151 -3662 -4151 -32 34 c-18 18 -1654 1871
-3635 4118 -1982 2247 -3617 4099 -3634 4116 l-31 32 -4130 -3645z m18059
-28816 c3589 -4068 6526 -7401 6525 -7405 0 -6 -12965 -11447 -13087 -11549
l-38 -32 -6530 5760 c-3591 3168 -6544 5775 -6563 5793 l-33 33 6488 7354
c3568 4045 6521 7391 6562 7437 l75 83 38 -38 c20 -21 2974 -3367 6563 -7436z"/>
</g>
</svg>
